<?xml version="1.0" standalone="no"?>
<!DOCTYPE svg PUBLIC "-//W3C//DTD SVG 1.1//EN" "http://www.w3.org/Graphics/SVG/1.1/DTD/svg11.dtd" >

<svg>
<metadata>
Created by webfont
</metadata>
<defs>

<font id="Noto Sans S Chinese Black" horiz-adv-x="1000" vert-adv-y="1000" >
  <font-face
    
    font-family="Noto Sans S Chinese Black"
    
    font-weight="900"
    
    font-stretch="normal"
    
    units-per-em="1000"
    
    panose-1="0 0 0 0 0 0 0 0 0 0"
    
    ascent="880"
    
    descent="-120"
    
    x-height="569"
    
    cap-height="744"
    
    bbox="-1019 -1045 2925 1805"
    
    underline-thickness="50"
    
    underline-position="-100"
    
    unicode-range="U+0001-2CE93"
    
  />
    <missing-glyph />
    
    <glyph glyph-name="cid63155" unicode="&#x201C;" d="M982 806q-24 -11 -41.5 -26.5t-29 -31t-17 -30t-5.5 -23.5q2 1 7 2t11 1q33 0 53.5 -22.5t20.5 -55.5t-22.5 -56t-61.5 -23q-20 0 -37 9t-29.5 24.5t-19.5 36.5t-7 45q0 39 11.5 72t31.5 59t46.5 46t55.5 34zM772 806q-24 -11 -41.5 -26.5t-29 -31t-17 -30t-5.5 -23.5
q2 1 7 2t11 1q33 0 53.5 -22.5t20.5 -55.5t-22.5 -56t-61.5 -23q-20 0 -37 9t-29.5 24.5t-19.5 36.5t-7 45q0 39 11.5 72t31.5 59t46.5 46t55.5 34z"     />

    
    <glyph glyph-name="cid63156" unicode="&#x201D;" d="M18 593q24 11 41.5 26.5t29 31t17 30t5.5 23.5q-2 -1 -7 -2t-11 -1q-33 0 -53.5 22.5t-20.5 55.5t22.5 56t61.5 23q20 0 37 -9t29.5 -24.5t19.5 -36.5t7 -45q0 -39 -11.5 -72t-31.5 -59t-46.5 -46.5t-55.5 -33.5zM228 593q24 11 41.5 26.5t29 31t17 30t5.5 23.5
q-2 -1 -7 -2t-11 -1q-33 0 -53.5 22.5t-20.5 55.5t22.5 56t61.5 23q20 0 37 -9t29.5 -24.5t19.5 -36.5t7 -45q0 -39 -11.5 -72t-31.5 -59t-46.5 -46.5t-55.5 -33.5z"     />

    
    <glyph glyph-name="cid14" unicode="&#x2d;" d="M50 352h283v-125h-283v125z"  horiz-adv-x="383"   />

    
    <glyph glyph-name="cid1391" unicode="&#x3002;" d="M193 0q35 0 59 24t24 59t-24 59t-59 24q-34 0 -58.5 -24t-24.5 -59t24.5 -59t58.5 -24zM193 250q35 0 65.5 -13t53 -36t35.5 -53.5t13 -64.5q0 -35 -13 -65t-35.5 -53t-53 -36t-65.5 -13t-65 13t-53 36t-36 53t-13 65q0 34 13 64.5t36 53.5t53 36t65 13z"     />

    
    <glyph glyph-name="cid9843" unicode="&#x4E0A;" d="M962 102v-147h-923v147h351v742h157v-276h344v-147h-344v-319h415z"     />

    
    <glyph glyph-name="cid9846" unicode="&#x4E0D;" d="M655 525q38 -30 84 -65.5t91 -72.5t85.5 -73t67.5 -66l-125 -112q-21 27 -53 59t-69 66.5t-77.5 69t-77.5 66.5v-490h-160v452q-64 -66 -137.5 -122.5t-156.5 -99.5q-9 15 -21 33t-26 36t-27.5 35t-25.5 29q66 30 125.5 71t112 89.5t96.5 102t78 108.5h-377v149h878v-149
h-308q-12 -21 -24.5 -42t-26.5 -41v-95z"     />

    
    <glyph glyph-name="cid9858" unicode="&#x4E14;" d="M956 87v-142h-910v142h147v717h637v-717h126zM678 431h-340v-100h340v100zM338 664v-99h340v99h-340zM338 87h340v104h-340v-104z"     />

    
    <glyph glyph-name="cid9913" unicode="&#x4E3A;" d="M576 159q-7 19 -18.5 42t-25.5 48t-29 49.5t-30 46.5l123 56q15 -20 31.5 -43.5t31.5 -47t27.5 -46t20.5 -41.5zM922 625q-1 -14 -1 -26q0 -11 -0.5 -22.5t-0.5 -18.5q-5 -142 -9.5 -242.5t-12 -168t-17.5 -107t-25 -58.5q-24 -32 -49.5 -44.5t-59.5 -18.5q-30 -5 -73 -6
t-88 0q-1 16 -5.5 36t-11 40.5t-16 40.5t-19.5 36q45 -4 83 -4.5t59 -0.5q14 0 23.5 3.5t19.5 13.5q9 10 16.5 37.5t12.5 76t9 119.5t7 167h-262q-11 -71 -33.5 -145.5t-62.5 -146.5t-99.5 -138.5t-144.5 -121.5q-9 12 -23 27.5t-30.5 30.5t-33 28t-29.5 22q72 44 124 97
t88 110.5t58 117.5t34 119h-281v147h299q2 23 2 43v40v145h148v-146v-40t-2 -42h406zM249 832q13 -17 27 -36.5t27 -39.5t23.5 -39.5t17.5 -35.5l-137 -56q-5 15 -14.5 34.5t-21.5 40.5t-25 42t-25 39z"     />

    
    <glyph glyph-name="cid10340" unicode="&#x4F53;" d="M766 552q20 -55 45.5 -110t55 -106t62 -95.5t67.5 -79.5q-13 -9 -28 -22.5t-29.5 -29t-28 -31.5t-22.5 -30q-36 43 -69 99v-83h-119v-151h-142v151h-113v91q-19 -31 -39.5 -58.5t-42.5 -51.5q-8 12 -19.5 25.5t-24.5 27.5t-26.5 27t-25.5 23v-242h-138v488
q-12 -16 -24 -30.5t-24 -28.5q-5 13 -14 33.5t-20 42.5t-22.5 42.5t-20.5 34.5q30 33 59 74.5t55 88.5t48 98t39 102l137 -42q-32 -92 -75 -182v-464q35 34 68 78.5t62 94.5t54 105t45 111h-176v138h238v159h142v-159h264v-138h-198zM558 193v197q-20 -53 -42.5 -102.5
t-47.5 -94.5h90zM793 193q-26 48 -49.5 101t-43.5 110v-211h93z"     />

    
    <glyph glyph-name="cid11323" unicode="&#x5185;" d="M921 63q0 -55 -13 -86.5t-48 -48.5t-83.5 -21t-115.5 -4q-2 15 -6.5 34t-11 38.5t-14.5 38t-15 32.5q19 -1 40.5 -2t41 -1h34.5h22q25 0 25 23v134l-106 -82q-25 38 -67.5 86.5t-90.5 96.5q-29 -59 -77.5 -112t-120.5 -97q-13 20 -37.5 46.5t-48.5 48.5v-284h-146v788
h343v164h150v-164h345v-628zM229 212q60 33 97 73.5t58.5 84.5t30 90t10.5 89h-196v-337zM575 549q-3 -50 -12 -103q27 -25 56 -52.5t57.5 -55.5t54.5 -55.5t46 -51.5v318h-202z"     />

    
    <glyph glyph-name="cid11785" unicode="&#x52A1;" d="M900 299q-1 -10 -2 -21q-1 -9 -2.5 -18.5t-2.5 -16.5q-9 -62 -18 -109t-20 -81t-23 -57t-27 -36q-26 -23 -54 -31.5t-67 -10.5q-30 -2 -77.5 -2t-99.5 2q-2 28 -14.5 63t-31.5 61q25 -2 51.5 -3.5t50.5 -2.5t43.5 -1h31.5q17 0 28.5 1.5t22.5 9.5q29 21 51 130h-249
q-26 -52 -61 -93.5t-79.5 -74.5t-98.5 -58t-118 -44q-6 12 -16 28t-22.5 33t-25 32.5t-22.5 25.5q97 20 165.5 57t113.5 94h-215v123h274q5 18 9 37.5t7 39.5l151 -12q-3 -17 -7 -33l-8 -32h362zM923 713q-43 -64 -103 -115t-134 -91q66 -11 139.5 -17.5t152.5 -9.5
q-11 -12 -22.5 -28t-22 -33.5t-20 -34.5t-15.5 -31q-115 8 -215 25t-186 48q-94 -31 -194.5 -51.5t-205.5 -32.5q-4 13 -10 30t-13.5 34.5t-16 33.5t-16.5 28q74 6 145.5 16t139.5 25q-44 30 -80 63q-23 -15 -47.5 -28.5t-51.5 -27.5q-6 13 -16 28.5t-21.5 31.5t-23.5 30
t-22 23q108 45 177 104.5t107 122.5l147 -30q-18 -30 -41 -62h357l22 6zM341 643q57 -53 152 -88q53 19 99 41t85 48h-334z"     />

    
    <glyph glyph-name="cid12146" unicode="&#x5374;" d="M946 207q0 -45 -8.5 -76.5t-35.5 -49.5q-27 -19 -59.5 -24t-75.5 -5q-2 15 -6 34.5t-10 39.5t-13.5 39t-14.5 33q21 -2 42 -2h29q14 0 14 15v449h-91v-754h-138v890h367v-589zM452 314q16 -36 33.5 -75.5t33 -79t27.5 -76t19 -65.5l-121 -60q-6 35 -20 80
q-96 -18 -156 -29.5t-96 -20t-54.5 -14.5t-30.5 -13q-3 10 -8 26.5t-11.5 34.5t-13.5 36t-13 32q17 5 30.5 19t27.5 37q6 9 16.5 29t22.5 47t25 59t24 66h-145v138h177v101h-147v137h147v132h141v-132h145v-137h-145v-101h169v-138h-187q-20 -54 -48 -108t-57 -103l146 23
q-11 27 -21 53.5t-21 51.5z"     />

    
    <glyph glyph-name="cid12179" unicode="&#x538B;" d="M970 671h-735v-188q0 -63 -3.5 -140t-14.5 -156t-31 -153.5t-53 -133.5q-9 9 -24.5 20.5t-32 23t-33.5 21.5t-29 15q29 53 45.5 117t25 130.5t10.5 132.5t2 122v329h873v-140zM774 332q22 -16 43.5 -34.5t41.5 -38t37 -38t29 -34.5l-107 -83q-11 16 -27 36.5t-35.5 41.5
t-41 42t-42.5 38zM651 75h302v-138h-752v138h300v271h-240v138h240v164h150v-164h272v-138h-272v-271z"     />

    
    <glyph glyph-name="cid13372" unicode="&#x5668;" d="M763 319q48 -29 105 -52.5t118 -37.5q-11 -10 -24 -24.5t-25 -30.5t-23 -32t-18 -29l-16 5v-207h-140v15h-85v-21h-132v321h148q-57 42 -102 93h-166q-48 -51 -106 -93h171v-315h-139v15h-74v-21h-132v222q-7 -4 -14 -7t-15 -6q-5 13 -13.5 29t-19 31.5t-22 30
t-21.5 23.5q54 20 99 42.5t83 48.5h-159v125h294q13 17 24 34.5t21 34.5h-279v303h356v-288l70 -13v301h370v-303h-146q21 -11 39.5 -22t31.5 -22l-26 -25h164v-125h-197zM329 102h-74v-52h74v52zM658 634h100v61h-100v-61zM320 695h-91v-61h91v61zM536 513
q-8 -18 -17.5 -35t-19.5 -34h166q-17 9 -34.5 17.5t-34.5 15.5l39 36h-99zM740 50v52h-85v-52h85z"     />

    
    <glyph glyph-name="cid13704" unicode="&#x5728;" d="M952 725v-139h-532q-24 -51 -52.5 -100t-62.5 -95v-485h-147v326q-35 -31 -74 -56q-6 15 -14 34t-17.5 38.5t-19.5 37.5t-18 32q75 48 134.5 117.5t104.5 150.5h-203v139h267q13 33 23 66t18 65l152 -36q-8 -24 -16 -47.5t-16 -47.5h473zM725 65h222v-134h-599v134h230
v198h-192v134h192v151h147v-151h184v-134h-184v-198z"     />

    
    <glyph glyph-name="cid14469" unicode="&#x5904;" d="M541 677q-25 -304 -118 -489q37 -35 77.5 -57.5t84 -36t90.5 -18.5t96 -5h46h61t62.5 0.5t50.5 1.5q-9 -14 -17.5 -33.5t-16 -41t-13.5 -42.5t-9 -37h-172q-61 0 -118 6.5t-109.5 23t-100.5 43.5t-91 69q-85 -106 -206 -163q-9 13 -24 29t-32 32.5t-34.5 30.5t-30.5 22
q72 30 129 73t101 103q-17 30 -33.5 64.5t-30.5 74.5q-9 -16 -17.5 -30t-17.5 -27q-10 9 -24.5 20.5t-31 22.5t-33 21.5t-30.5 17.5q26 37 49.5 91.5t43.5 121t35 140.5t25 150l154 -31q-6 -32 -12 -63.5t-14 -63.5h106l26 4zM275 564q-5 -17 -10 -32.5t-10 -31.5
q14 -51 31 -94t36 -79q20 51 33.5 109.5t22.5 127.5h-103zM731 101h-156v756h156v-245l35 20q25 -32 53.5 -68t55.5 -72.5t51 -71.5t39 -64l-131 -80q-16 35 -43.5 79t-59.5 91v-345z"     />

    
    <glyph glyph-name="cid14588" unicode="&#x5947;" d="M961 346h-117v-294q0 -51 -14.5 -81t-52.5 -45q-38 -16 -87 -19t-112 -3q-5 23 -15 50.5t-21 52.5h-275v-60h-138v351h452v-261q29 -1 53.5 -1h32.5q14 1 20 4.5t6 14.5v291h-651v129h99q-11 24 -27.5 51t-30.5 44q113 11 178.5 29.5t99.5 49.5h-268v126h322q2 19 3 39
t2 43h150q-1 -43 -6 -82h340v-126h-266q71 -23 138.5 -48t119.5 -45l-86 -81h151v-129zM443 187h-176v-69h176v69zM744 475q-56 23 -124 49t-136 49q-34 -33 -88 -57t-135 -41h483z"     />

    
    <glyph glyph-name="cid14709" unicode="&#x5982;" d="M940 755v-806h-144v58h-138v-74h-137v822h419zM796 144v474h-138v-474h138zM502 651q-8 -149 -30 -263t-63 -202q26 -24 49 -46t40 -41l-94 -123q-30 36 -76 82q-43 -51 -97.5 -89.5t-123.5 -67.5q-14 28 -37 63t-45 57q63 20 112 54t87 82q-42 40 -84 78t-77 73l-2 1v1
l1 1q14 45 28 100.5t27 115.5h-82v133h107q8 48 13.5 96t9.5 93l142 -9q-5 -44 -12 -89t-15 -91h108l25 3zM254 527q-10 -45 -20 -88t-21 -84q20 -17 41 -35l42 -36q42 103 57 243h-99z"     />

    
    <glyph glyph-name="cid15798" unicode="&#x5B57;" d="M942 182h-366v-116q0 -56 -15.5 -87t-58.5 -48q-42 -17 -93.5 -20.5t-113.5 -3.5q-3 16 -10 36t-15.5 40.5t-18 39t-18.5 33.5q21 -1 46 -1.5t47.5 -1t40.5 -0.5h26q16 0 21.5 3.5t5.5 14.5v111h-361v138h361v48q24 13 47.5 29t46.5 34h-279v135h424l34 7l97 -76
q-44 -45 -97.5 -89.5t-116.5 -82.5v-5h366v-138zM203 522h-143v244h364q-14 29 -31 54l147 43q17 -21 32 -47.5t25 -49.5h341v-244h-151v107h-584v-107z"     />

    
    <glyph glyph-name="cid15901" unicode="&#x5B89;" d="M836 -103q-51 35 -126 74t-163 79q-84 -55 -187 -89.5t-226 -56.5q-6 13 -16 31.5t-21.5 37t-24 36.5t-22.5 30q98 11 180.5 30.5t151.5 50.5q-57 23 -113.5 44.5t-108.5 38.5l2 2q21 27 42.5 59t43.5 67h-195v137h272q18 35 33.5 70t27.5 69l165 -33q-21 -52 -47 -106
h445v-137h-169q-22 -51 -49.5 -94t-59.5 -80q83 -35 156 -70t127 -67zM431 331q-11 -17 -20.5 -34t-20.5 -33q33 -11 67 -23.5t68 -25.5q26 25 46.5 53.5t36.5 62.5h-177zM217 515h-148v236h339q-8 19 -16 37.5t-16 35.5l153 36q13 -25 28 -54t26 -55h352v-236h-156v102
h-562v-102z"     />

    
    <glyph glyph-name="cid16002" unicode="&#x5BB9;" d="M596 497q-4 -6 -7 -11.5t-7 -11.5q84 -83 182 -136.5t213 -92.5q-26 -23 -51 -56t-39 -65q-23 10 -44 20t-42 21v-260h-149v25h-306v-25h-141v248q-23 -11 -46 -21.5t-47 -19.5q-14 27 -39 60.5t-50 57.5q70 22 136 53t123.5 71t105.5 89t82 108zM652 57v72h-306v-72h306
zM647 256q-37 26 -71.5 55t-69.5 63q-29 -33 -62 -62.5t-68 -55.5h271zM446 600q-23 -35 -52.5 -67.5t-63 -62t-69.5 -55t-71 -44.5q-8 10 -20 25.5t-25.5 31.5t-27.5 30.5t-24 24.5q29 12 58 28t55 35h-141v236h358q-5 14 -10.5 28t-11.5 27l154 32q11 -20 21 -42.5
t18 -44.5h342v-236h-140q29 -20 54 -40.5t42 -37.5l-107 -93q-18 20 -46 44.5t-60 49.5t-66.5 49t-65.5 44l100 82q32 -19 68.5 -42.5t71.5 -48.5v98h-580v-105q32 23 58 48t45 52z"     />

    
    <glyph glyph-name="cid16224" unicode="&#x5C31;" d="M860 28q7 0 10 4q5 3 8 29q2 14 2.5 44t0.5 69q19 -18 51.5 -35t59.5 -26q-2 -37 -5.5 -73t-9.5 -54q-7 -20 -17 -32t-25 -20q-13 -7 -30 -10t-31 -3h-63q-19 0 -39.5 6.5t-34.5 20.5q-7 7 -12.5 16t-9 22t-5 32t-1.5 47v146q-26 -88 -69 -166.5t-108 -143.5
q-17 24 -44.5 49.5t-55.5 42.5q49 46 83 101t56.5 116t35.5 127.5t20 135.5h-112v129h120q2 63 2 125.5t1 125.5h136l-1 -73l81 47q15 -18 31 -38.5t30.5 -41.5t26.5 -41t20 -37l-99 -61q-12 30 -37.5 71t-52.5 78q-1 -38 -2 -77t-3 -78h202v-129h-211l-4 -34h78v-377
q0 -25 2 -29q3 -5 10 -5h15zM447 298q12 -21 23.5 -44.5t21.5 -47.5t17.5 -46.5t11.5 -40.5l-105 -50q-3 19 -10 42t-16 47.5t-20 49t-22 45.5zM347 300v-260q0 -42 -8.5 -67.5t-34.5 -40.5q-26 -14 -58 -17.5t-74 -3.5q-4 25 -14 56t-21 56q-12 -26 -24 -45
q-8 7 -20.5 16.5t-26 19.5t-27 18.5t-23.5 14.5q29 45 49.5 109t31.5 130l116 -25q-12 -60 -30.5 -120t-41.5 -110q20 -1 38 -1h26q14 0 14 13v257h-140v285h392v-285h-124zM203 410h136v64h-136v-64zM502 620h-460v126h172q-6 21 -13 42.5t-15 40.5l133 28
q12 -26 23.5 -55.5t19.5 -55.5h140v-126z"     />

    
    <glyph glyph-name="cid17186" unicode="&#x5E38;" d="M941 728v-257h-145v133h-595v-133h-139v257h122q-9 18 -20.5 36.5t-23.5 34.5l133 52q20 -23 38.5 -51t27.5 -51l-49 -21h129v128h151v-128h135l-50 17q17 23 35.5 51.5t29.5 51.5l158 -45q-20 -21 -37.5 -40t-34.5 -35h135zM886 75q0 -48 -12 -76t-46 -44
q-34 -15 -76 -18t-93 -3q-5 30 -18.5 67.5t-27.5 64.5q13 -1 29 -1.5t31 -0.5h26.5h16.5q20 0 20 14v72h-150v-245h-151v245h-158v-201h-148v330h306v47h-206v243h541v-243h-184v-47h300v-204zM368 426h253v43h-253v-43z"     />

    
    <glyph glyph-name="cid17287" unicode="&#x5E76;" d="M961 228h-212v-323h-155v323h-197q-8 -47 -24 -93t-44.5 -89t-71 -81.5t-103.5 -69.5q-8 13 -21 30t-28 33.5t-30 32t-27 25.5q85 42 128.5 97.5t60.5 114.5h-195v140h212v3v148h-181v139h200q-12 34 -33 75t-43 76l139 54q13 -19 27 -41t26.5 -44t23.5 -43.5t17 -39.5
l-92 -37h247q22 47 42.5 102t31.5 103l173 -45q-21 -42 -42.5 -83t-42.5 -77h186v-139h-184v-151h212v-140zM594 368v151h-187v-151h187z"     />

    
    <glyph glyph-name="cid17592" unicode="&#x5F15;" d="M884 837v-932h-147v932h147zM573 366q0 -11 -1 -22q-1 -9 -1.5 -19.5t-1.5 -17.5q-6 -77 -12.5 -134.5t-14.5 -98.5t-18.5 -67.5t-23.5 -41.5q-23 -26 -49.5 -35.5t-61.5 -14.5q-27 -3 -68.5 -4t-87.5 0q-1 18 -5.5 38t-12 40t-17 39t-20.5 35q44 -4 85.5 -5t63.5 -1
q14 0 24.5 2t21.5 10q13 10 22.5 49.5t17.5 113.5h-195l-151 -1q8 37 16.5 81.5t16.5 92.5t14.5 96.5t11.5 93.5h290v88h-307v135h450v-358h-303q-3 -24 -6.5 -47.5t-7.5 -46.5h331z"     />

    
    <glyph glyph-name="cid17806" unicode="&#x5F88;" d="M950 244q-34 -26 -70.5 -51.5t-68.5 -45.5q33 -37 74 -66t92 -49q-12 -11 -25.5 -26.5t-27 -33t-25 -34.5t-19.5 -32q-62 31 -110 74.5t-85 99t-64 122t-47 142.5h-43v-256l120 24v-33t0.5 -36t2 -34.5t3.5 -28.5q-72 -17 -117.5 -29t-74 -21t-43 -16t-24.5 -13
q-4 12 -11 27.5t-15.5 31.5t-17.5 30t-17 23q18 11 35 35t17 61v708h497v-473h-26zM531 693v-53h214v53h-214zM531 468h214v56h-214v-56zM700 344q9 -26 19.5 -51t23.5 -48q29 22 59 49t52 50h-154zM377 579q-17 -29 -37.5 -59.5t-43.5 -60.5v-554h-142v392q-19 -18 -38 -35
t-37 -32q-4 13 -12 33.5t-17.5 42.5t-19.5 42.5t-18 34.5q31 22 64 51t64.5 61.5t59.5 67.5t49 70zM357 797q-26 -36 -58 -72.5t-66.5 -70.5t-70.5 -64t-71 -53q-6 12 -15 29t-19 34t-20 33.5t-18 27.5q28 17 57 40t55.5 48.5t49 52t37.5 50.5z"     />

    
    <glyph glyph-name="cid18044" unicode="&#x601D;" d="M852 272q20 -28 39.5 -59t36.5 -62.5t30 -62t20 -57.5l-142 -60q-5 25 -16.5 56t-26.5 63.5t-33.5 65.5t-37.5 62zM595 54q14 0 23 3.5t14.5 14.5t8.5 32t5 56q11 -8 27.5 -16t34.5 -15t36 -13t33 -9q-6 -55 -17.5 -90.5t-31 -56.5t-49 -29t-72.5 -8h-147q-55 0 -90 8.5
t-55.5 27.5t-28 50t-7.5 77v145h147q-11 7 -22 13.5t-22 12.5l71 67h-322v490h731v-490h-340q44 -24 85.5 -53.5t66.5 -56.5l-104 -99q-22 26 -61.5 57.5t-82.5 58.5v-143q0 -23 9.5 -28.5t43.5 -5.5h116zM718 512h-152v-63h152v63zM718 689h-152v-61h152v61zM268 628h157
v61h-157v-61zM268 449h157v63h-157v-63zM29 39q33 45 60 105.5t43 123.5l132 -48q-18 -66 -43.5 -134.5t-60.5 -119.5z"     />

    
    <glyph glyph-name="cid19459" unicode="&#x6362;" d="M738 183q42 -54 108 -95.5t148 -62.5q-11 -10 -23.5 -24t-24.5 -29.5t-22.5 -31t-17.5 -28.5q-81 29 -145.5 78.5t-112.5 116.5q-39 -55 -103 -107t-162 -97q-8 11 -19.5 24.5t-25 27.5t-27.5 27t-27 22q103 40 162.5 85.5t91.5 93.5h-198v118l-74 -21v-209
q0 -49 -9.5 -79t-35.5 -47q-26 -18 -62.5 -24t-86.5 -5q-2 14 -5.5 32t-8.5 37t-11.5 37.5t-12.5 33.5q23 -1 45.5 -1h31.5q16 0 16 17v171l-80 -21l-30 139q50 9 110 24v154h-95v133h95v182h139v-182h77v-49q63 51 107 111t69 117l143 -27q-13 -29 -27 -53h161l22 6l96 -63
q-15 -27 -35 -57t-43 -60h86v-292h52v-122h-236zM747 489l-3 -3l-4 3h-10v-117q0 -16 -1 -33t-3 -34h50v184h-29zM558 651q-11 -14 -21.5 -27t-22.5 -27h163q20 26 37 54h-156zM361 307l-7 -2h42v233q-12 17 -26 32.5t-27 27.5v-59h-77v-121l76 19zM584 305q2 19 3 36t1 33
v115h-54v-184h50z"     />

    
    <glyph glyph-name="cid20318" unicode="&#x653E;" d="M902 542q-16 -104 -40 -191t-62 -161q38 -49 84.5 -87.5t105.5 -64.5q-12 -11 -26.5 -26.5t-28 -33t-25 -34.5t-19.5 -32q-54 29 -97.5 65t-79.5 81q-79 -94 -199 -156q-5 12 -14 29t-20.5 35t-23 34.5t-21.5 28.5q-7 -47 -19 -65q-16 -24 -32.5 -34.5t-39.5 -15.5
q-20 -5 -47.5 -6t-59.5 0q-2 29 -12 66.5t-25 64.5q40 -3 66 -3q17 0 28 16q4 7 7.5 27t6 56.5t4 92.5t2.5 136h-55q-1 -58 -7 -117.5t-21.5 -117t-43.5 -112.5t-72 -105q-9 12 -22 24.5t-27.5 25.5t-29.5 24.5t-28 20.5q37 46 59.5 94t34.5 96.5t16 96.5t4 93v187h-87v134
h183q-6 27 -16 60.5t-20 61.5l130 30q13 -32 25 -69t19 -64l-71 -19h192v-134h-218v-79h193v-40q50 76 80.5 180.5t45.5 220.5l149 -23q-6 -40 -14 -79.5t-17 -77.5h280v-134h-75zM658 542v-1q11 -53 24.5 -102t31.5 -94q15 45 25.5 93.5t18.5 103.5h-100zM436 31
q125 56 198 156q-37 76 -63 167q-22 -35 -45 -62q-11 16 -32.5 40.5t-42.5 46.5q-2 -133 -5 -217t-10 -131z"     />

    
    <glyph glyph-name="uni6587" unicode="&#x6587;" d="M813 549q-70 -202 -193 -342q75 -54 166 -93.5t200 -63.5q-12 -12 -26 -29t-27 -36t-25 -37.5t-20 -33.5q-116 30 -210 76t-172 109q-82 -65 -181 -112.5t-218 -80.5q-6 13 -16.5 31.5t-23 37.5t-25.5 37t-23 31q115 26 209 65t170 95q-63 72 -111.5 158t-87.5 188h-158
v142h412q-8 30 -20.5 65.5t-26.5 65.5l156 46l19 -38t18.5 -40t15 -39t10.5 -35l-81 -25h420v-142h-151zM350 549q59 -139 159 -245q45 51 79.5 112t60.5 133h-299z"     />

    
    <glyph glyph-name="uni65E0" unicode="&#x65E0;" d="M789 73q13 0 21.5 5t13.5 20t8 43t5 75q12 -9 29 -18.5t36.5 -17.5t39 -14t34.5 -10q-6 -66 -17.5 -109.5t-31.5 -69t-50.5 -36t-74.5 -10.5h-128q-53 0 -86.5 9.5t-53.5 31t-27.5 56.5t-7.5 87v176q-20 -59 -51 -113.5t-76.5 -103t-107 -91t-143.5 -76.5q-8 14 -18.5 31
t-23.5 33.5t-27.5 31.5t-28.5 27q79 30 137 67.5t99.5 81t67.5 92t42 101.5h-327v143h354q4 34 5.5 68.5t3.5 69.5h-304v142h811v-142h-357q-2 -35 -4 -69t-6 -69h420v-143h-313v-255q0 -15 1.5 -23.5t6 -13t13.5 -6t23 -1.5h93z"     />

    
    <glyph glyph-name="cid20733" unicode="&#x662F;" d="M586 55q14 0 29 -0.5t31 -0.5h67.5h92t95 1t77.5 2q-8 -12 -15 -29t-13.5 -36t-11.5 -38t-8 -35h-293q-65 0 -120.5 5t-102.5 19.5t-86 39.5t-71 65q-55 -91 -133 -145q-8 10 -21.5 24t-29 28.5t-31 28t-27.5 21.5q75 45 119.5 119t61.5 170l145 -21q-5 -23 -10.5 -44.5
t-12.5 -42.5q20 -42 51 -67t70 -39v228h-381v127h887v-127h-359v-54h296v-125h-296v-74zM857 466h-713v359h713v-359zM709 599h-424v-33h424v33zM709 725h-424v-33h424v33z"     />

    
    <glyph glyph-name="cid20753" unicode="&#x663E;" d="M975 88v-139h-950v139h286v278h138v-278h98v279h137v-279h291zM175 113q-6 18 -15.5 42t-20.5 50t-23 52t-23 49l110 47q11 -22 24 -47t25 -49.5t22.5 -47.5t17.5 -41zM692 168q13 19 27.5 42.5t28 49t25.5 51.5t21 49l122 -53q-27 -53 -57.5 -103t-56.5 -86zM846 393
h-693v418h693v-418zM696 551h-400v-47h400v47zM696 701h-400v-47h400v47z"     />

    
    <glyph glyph-name="cid21055" unicode="&#x66F4;" d="M569 213q-10 -33 -25.5 -64t-38.5 -59q49 -13 103.5 -19.5t115 -8.5t127 -1.5t138.5 2.5q-20 -25 -37.5 -66t-23.5 -78q-79 1 -153 4t-142.5 10.5t-131 21t-117.5 36.5q-100 -56 -261 -87q-6 12 -16 29t-22.5 35t-25.5 35.5t-25 29.5q63 8 113 19t89 25q-24 21 -46.5 45
t-42.5 52l97 39h-102v428h291v44h-375v129h887v-129h-359v-44h295v-428h-312zM737 374h-151v-28v-17h151v45zM586 525v-44h151v44h-151zM279 481h154v44h-154v-44zM279 329h154v19v26h-154v-45zM285 213q35 -36 78 -64q29 29 46 64h-124z"     />

    
    <glyph glyph-name="cid21098" unicode="&#x670D;" d="M965 445q-30 -199 -110 -335q62 -59 138 -93q-11 -10 -24 -23.5t-25 -29t-23 -31t-18 -28.5q-72 39 -129 96q-51 -56 -120 -97q-11 20 -29.5 45.5t-37.5 45.5v-90h-137v916h483v-194q0 -46 -12.5 -72.5t-47.5 -40.5q-34 -14 -79.5 -16t-102.5 -2q-5 28 -17 61.5t-25 59.5
q16 -1 35.5 -1.5t37 -0.5h31h19.5q12 1 17 3.5t5 11.5v57h-207v-219h269l23 4zM705 337q24 -61 59 -116q28 56 44 116h-103zM587 19q58 35 102 88q-32 48 -57 102t-45 114v-304zM412 58q0 -47 -8.5 -77.5t-35.5 -48.5q-26 -18 -61 -22.5t-83 -4.5q-1 14 -4.5 32.5t-9 38
t-11.5 37.5t-13 32q23 -2 45.5 -1.5t31.5 0.5q15 0 15 17v172h-74q-7 -89 -23 -175.5t-46 -154.5q-9 8 -24 17.5t-31.5 19t-33 17t-28.5 12.5q22 51 35 112.5t19.5 126t8 128t1.5 118.5v367h330v-763zM212 687v-89h66v89h-66zM278 370v94h-66v-10v-40.5t-1 -43.5h67z"     />

    
    <glyph glyph-name="cid21154" unicode="&#x672A;" d="M641 321q31 -38 70.5 -74.5t83.5 -69.5t91.5 -61t95.5 -49q-13 -11 -27.5 -26.5t-29 -33t-27.5 -35t-22 -32.5q-82 45 -158 108.5t-141 140.5v-284h-155v280q-66 -75 -142.5 -137t-159.5 -106q-9 14 -22 31t-27.5 34.5t-29.5 33.5t-28 27q49 21 97 49t92 60.5t83.5 69
t71.5 74.5h-307v144h372v103h-295v144h295v143h155v-143h302v-144h-302v-103h378v-144h-314z"     />

    
    <glyph glyph-name="cid21157" unicode="&#x672C;" d="M724 522q44 -101 108 -190.5t144 -148.5q-14 -11 -30 -27t-32 -33.5t-30 -35.5t-24 -33q-49 43 -90 94v-84h-193v-159h-155v159h-197v89q-48 -60 -102 -104q-9 13 -22.5 29.5t-28 32.5t-29 30.5t-27.5 25.5q81 60 147 154t109 201h-217v148h367v185h155v-185h370v-148
h-223zM422 212v310h-1q-29 -86 -67 -164t-85 -146h153zM724 212q-45 67 -81.5 144t-65.5 161v-305h147z"     />

    
    <glyph glyph-name="cid21180" unicode="&#x673A;" d="M868 53q5 0 8 5q4 6 5 35q1 16 1.5 48.5t0.5 74.5q20 -17 48.5 -32.5t54.5 -24.5q0 -20 -1.5 -42t-3 -43t-3.5 -38.5t-5 -29.5q-9 -44 -35 -66q-13 -11 -31 -15.5t-36 -4.5h-58q-20 0 -41.5 7.5t-35.5 23.5q-8 9 -13 19t-9 25.5t-5.5 37.5t-1.5 55v572h-98v-189
q0 -65 -6 -141.5t-25 -153.5t-53 -148t-89 -125q-8 10 -22 23.5t-30 27t-32 25t-29 19.5v-94h-145v328q-20 -46 -41.5 -87t-45.5 -74q-5 16 -13.5 34t-18.5 36t-20 34.5t-19 30.5q23 33 45 72.5t40.5 82t34 86.5t26.5 86h-125v138h137v183h145v-183h101v-138h-101v-19
q12 -13 31.5 -34.5t40 -44t38 -42t25.5 -29.5q3 57 3 108v325h391v-700q0 -34 1 -38q3 -6 7 -6h8zM323 4q36 36 60.5 78.5t40 88t23.5 93t11 93.5l-71 -137q-12 24 -29 53t-35 58v-327z"     />

    
    <glyph glyph-name="cid21331" unicode="&#x679C;" d="M688 199q62 -45 139.5 -81.5t157.5 -59.5q-12 -11 -25.5 -26.5t-27 -32t-25.5 -33.5t-20 -31q-82 32 -161 81t-145 110v-221h-155v215q-66 -63 -146.5 -112t-165.5 -80q-8 13 -20 29.5t-25.5 33t-27 32t-25.5 26.5q84 24 163.5 63t141.5 87h-272v132h377v45h-278v434h713
v-434h-280v-45h373v-132h-266zM701 538h-120v-42h120v42zM701 690h-120v-41h120v41zM300 649h126v41h-126v-41zM426 496v42h-126v-42h126z"     />

    
    <glyph glyph-name="cid23035" unicode="&#x6B63;" d="M963 81v-142h-923v142h116v433h152v-433h148v572h-384v142h865v-142h-326v-194h268v-142h-268v-236h352z"     />

    
    <glyph glyph-name="cid23036" unicode="&#x6B64;" d="M813 61q10 0 16.5 7t10.5 25t6 48.5t4 77.5q13 -10 30 -19.5t35.5 -18t37 -15t33.5 -10.5q-5 -63 -15.5 -108t-28.5 -73.5t-46 -42t-68 -13.5h-106q-45 0 -74.5 10t-47.5 34t-25 64t-7 100v728h151v-319q38 26 72 52.5t62 51.5l115 -121q-58 -38 -122 -72t-127 -63v-259
q0 -21 1 -34t4 -19.5t8.5 -8.5t15.5 -2h65zM530 140l11 -143q-63 -12 -128.5 -24.5t-129 -24t-122.5 -22t-110 -20.5l-23 153q17 2 34 4.5t36 5.5v575h141v-554l51 9v756h150v-290h100v-139h-100v-302z"     />

    
    <glyph glyph-name="cid23681" unicode="&#x6CD5;" d="M843 -95q-5 19 -12.5 40t-17.5 44q-117 -15 -190 -24.5t-116.5 -16.5t-64.5 -12.5t-35 -12.5q-3 11 -9 29.5t-13 38.5t-14.5 40.5t-14.5 35.5q20 6 34.5 21.5t31.5 43.5q6 9 16 28t22 44.5t25 56.5t26 65h-170v137h227v119h-189v137h189v136h148v-136h195v-137h-195v-119
h229v-137h-264q-27 -63 -58.5 -122t-64.5 -113l192 19q-28 48 -56 88l119 58q24 -33 49 -70t46.5 -74.5t39 -73.5t26.5 -67zM364 229q-40 -79 -84 -158.5t-90 -154.5l-123 98q20 28 43.5 63.5t48.5 76t50 84.5t48 88zM220 361q-15 13 -37 27.5t-48 29t-53 27.5t-51 24
l76 109q23 -8 50 -19.5t53.5 -24.5t50 -26.5t40.5 -25.5zM278 625q-14 13 -36 28t-47 30t-51.5 29t-50.5 25l80 107q23 -9 49.5 -21t52.5 -25.5t49 -27.5t39 -26z"     />

    
    <glyph glyph-name="cid24386" unicode="&#x6E90;" d="M906 213q11 -23 23.5 -48.5t24.5 -51t22 -49.5t17 -43l-134 -57q-6 19 -15 44t-19.5 52t-22.5 54t-22 51zM774 230v-192q0 -45 -9 -71.5t-39 -40.5q-29 -14 -65.5 -17.5t-81.5 -2.5q-3 24 -11.5 53t-17.5 55q-10 -17 -19 -31.5t-17 -27.5q-10 8 -24.5 17.5t-30 19t-31 18
t-27.5 14.5q26 35 51.5 83t42.5 93l128 -37q-13 -32 -30 -66.5t-35 -66.5q20 -1 38 -1h25q15 0 15 13v188h-147v372h124q6 17 11.5 35t9.5 34h-167v-149q0 -68 -5 -149.5t-19.5 -165.5t-42 -163.5t-72.5 -141.5q-10 9 -25.5 20t-32.5 21.5t-34.5 20t-30.5 15.5
q42 57 66 126.5t36.5 142t15.5 143.5t3 131v279h637v-130h-243l82 -14q-9 -14 -18.5 -28t-18.5 -27h175v-372h-166zM806 500h-189v-36h189v36zM617 332h189v37h-189v-37zM283 239q-27 -82 -57.5 -163.5t-62.5 -158.5l-133 77q15 30 32 67.5t34.5 79.5t35 87t32.5 90z
M182 374q-13 10 -32.5 23t-41.5 26.5t-44.5 26.5t-41.5 24l83 105q18 -9 40.5 -20.5t45 -23.5t43 -23.5t35.5 -20.5zM231 641q-13 10 -33 23.5t-42.5 27.5t-45 27.5t-41.5 25.5l84 104q18 -9 40.5 -21t45.5 -24.5t44 -24.5t36 -22z"     />

    
    <glyph glyph-name="uni7528" unicode="&#x7528;" d="M910 68q0 -54 -13 -84.5t-46 -47.5q-35 -17 -82.5 -21.5t-114.5 -3.5q-2 15 -6.5 33t-11 37t-14 37t-14.5 32q18 -2 38.5 -2.5t39 -0.5h33h21.5q25 0 25 23v120h-178v-271h-147v271h-180q-14 -82 -44 -158t-83 -133q-9 10 -23.5 23.5t-31 27t-32.5 25t-28 18.5
q41 45 64.5 99.5t35 112.5t14.5 116.5t3 111.5v357h775v-722zM765 652h-178v-91h178v91zM279 652v-91h161v91h-161zM440 327v99h-161q0 -47 -3 -99h164zM765 327v99h-178v-99h178z"     />

    
    <glyph glyph-name="cid28088" unicode="&#x7684;" d="M658 164q-10 23 -25 52t-33 60t-37 62t-36 59l114 64q17 -26 36.5 -55.5l39 -59t36.5 -57.5t28 -50zM953 702q-1 -13 -1 -25v-38q-5 -167 -10 -283.5t-11.5 -193.5t-17 -120.5t-25.5 -64.5q-24 -32 -48.5 -45t-57.5 -19q-30 -5 -73.5 -5.5t-88.5 1.5q-1 15 -5 33t-10 37
t-14.5 37.5t-18.5 33.5q48 -5 89.5 -5.5t61.5 -0.5q15 0 24.5 3.5t19.5 14.5q11 12 19 46t13.5 95.5t9.5 152t7 214.5h-190q-41 -87 -85 -149q-14 12 -36.5 29.5t-45.5 32.5v-476h-262v-71h-131v756h114q8 38 14 82t8 81l159 -22q-13 -37 -25.5 -73t-24.5 -68h148v-133
q38 61 68.5 138t50.5 155l140 -33q-8 -29 -17.5 -58.5t-20.5 -58.5h273zM328 566h-131v-135h131v135zM328 134v172h-131v-172h131z"     />

    
    <glyph glyph-name="cid89" unicode="&#x78;" d="M190 296l-164 273h191l47 -88q13 -23 24 -48t23 -49h5q8 24 17.5 48.5t19.5 48.5l35 88h184l-164 -293l174 -276h-191l-52 89q-14 24 -26 49.5t-26 48.5h-5q-11 -23 -21 -47.5t-21 -50.5l-39 -89h-185z"  horiz-adv-x="598"   />

    
    <glyph glyph-name="uni793A" unicode="&#x793A;" d="M802 359q23 -35 47 -73.5t45.5 -78t38.5 -77.5t27 -70l-152 -66q-8 31 -23 69t-34.5 79t-42 82t-44.5 78zM585 411v-341q0 -58 -14.5 -91t-54.5 -50t-92 -21t-118 -4q-3 17 -8 37t-12 41t-15 41t-16 36q19 -1 41.5 -2t42.5 -1h36.5h23.5q14 0 20 3.5t6 14.5v337h-374v145
h901v-145h-367zM331 312q-16 -44 -37 -88t-45 -85t-49 -77t-50 -64q-12 10 -29 22t-36 24t-37.5 23t-32.5 18q51 48 94 120t68 147zM855 652h-712v144h712v-144z"     />

    
    <glyph glyph-name="cid29279" unicode="&#x795E;" d="M943 719v-561h-137v33h-61v-285h-142v285h-62v-44h-131v158l-76 -112q-21 35 -52 78v-365h-132v348q-46 -44 -94 -76q-3 16 -8.5 37.5t-12 43.5t-14 41t-13.5 30q66 37 123.5 97.5t98.5 132.5h-193v130h147q-13 26 -29.5 54.5t-32.5 52.5l114 60q22 -29 44 -64.5
t35 -61.5l-69 -41h58l23 5l71 -55q-20 -55 -45.5 -107t-56.5 -101q13 -12 29 -27.5l32 -31t30 -30t23 -23.5v399h193v137h142v-137h198zM745 591v-73h61v73h-61zM541 591v-73h62v73h-62zM603 319v73h-62v-73h62zM806 319v73h-61v-73h61z"     />

    
    <glyph glyph-name="cid30950" unicode="&#x7C97;" d="M975 56v-134h-577v134h83v760h426v-760h68zM761 433h-141v-123h141v123zM620 682v-120h141v120h-141zM620 56h141v125h-141v-125zM366 125q-10 20 -23.5 43.5t-29.5 49.5v-310h-134v288q-20 -55 -42.5 -104t-47.5 -87q-5 17 -12.5 37t-16.5 40.5t-18 40t-17 34.5
q17 21 34 48.5t32 58t28.5 62.5t24.5 62h-102v135h137v41l-102 -26q0 24 -3.5 54t-9 61.5t-12.5 63.5t-16 60l100 25q15 -43 26 -91.5t17 -92.5v235h134v-231q11 45 20.5 95t14.5 92l121 -24q-20 -64 -40.5 -130t-39.5 -112l-76 20v-40h126v-135h-126v-11q14 -13 35 -33
t41.5 -41t37.5 -39t25 -26z"     />

    
    <glyph glyph-name="cid32171" unicode="&#x7F29;" d="M828 588v61h-328v-49l78 -19l-4 -13h384v-113h-139l-15 -56h139v-486h-127v31h-115v-36h-121v491h94l4 28l4 28h-112v101q-17 -50 -36 -99v-549h-120v331q-14 -19 -31 -38q-9 17 -25 41t-31 44q0 -25 3 -41q-75 -20 -122.5 -33t-76 -22t-42.5 -15.5t-23 -12.5
q-2 9 -6.5 23.5t-10.5 31t-12 32.5t-11 28q19 5 35 21.5t37 42.5q8 11 24 33.5t35 54.5q-47 -6 -67.5 -11t-31.5 -10q-3 10 -8 25.5t-11 33t-12.5 35t-12.5 30.5q17 5 30 19.5t27 39.5q7 12 20 39.5t28 64t29.5 80t24.5 86.5l127 -58q-23 -65 -56 -132t-70 -126l48 2
q12 25 23 49.5t21 49.5l103 -63v184h231q-14 30 -28 59l127 38q14 -22 27 -48t23 -49h217v-179h-138zM816 55v63h-115v-63h115zM816 288h-115v-61h115v61zM328 359q-1 -10 -1.5 -21.5t-0.5 -23.5q41 52 72 122.5t50 137.5h-77q-29 -60 -64 -120t-74 -116zM27 77
q60 18 144 48t171 62l25 -117q-78 -34 -158.5 -67.5t-150.5 -62.5z"     />

    
    <glyph glyph-name="cid32296" unicode="&#x7F6E;" d="M957 30v-100h-910v100h108v398h254l3 28h-349v104h357l1 31h-322v229h805v-229h-335l-4 -31h358v-104h-372l-5 -28h297v-398h114zM671 686h87v40h-87v-40zM454 686h85v40h-85v-40zM322 726h-85v-40h85v40zM699 249h-407v-27h407v27zM292 125h407v29h-407v-29zM292 343
v-25h407v25h-407zM292 30h407v25h-407v-25z"     />

    
    <glyph glyph-name="cid32591" unicode="&#x8005;" d="M600 435q-23 -17 -46.5 -33.5t-47.5 -32.5h336v-461h-152v24h-310v-28h-145v318q-34 -15 -68.5 -28.5t-69.5 -26.5q-6 12 -17 28t-23 33t-24 32.5t-22 26.5q185 56 346 148h-310v127h310v70h-224v125h224v98h144v-98h200v-52q27 29 51 60.5t46 63.5l125 -64
q-78 -111 -174 -203h203v-127h-352zM690 53v45h-310v-45h310zM690 251h-310v-45h310v45zM501 562h46q22 17 42 34.5t40 35.5h-128v-70z"     />

    
    <glyph glyph-name="uni800C" unicode="&#x800C;" d="M564 679q-8 -22 -15.5 -43t-15.5 -41h389v-546q0 -48 -10.5 -75.5t-40.5 -44.5q-30 -16 -68 -20t-87 -4q-4 22 -12.5 50t-19.5 53v-74h-145v526h-80v-526h-145v526h-78v-555h-150v690h286q5 20 10 41.5t10 42.5h-350v148h919v-148h-397zM774 460h-90v-426q22 -1 43 -0.5
t29 0.5q18 0 18 17v409z"     />

    
    <glyph glyph-name="cid33098" unicode="&#x80FD;" d="M815 37q12 0 19 4.5t11.5 16.5t7 34.5t4.5 58.5q11 -8 27 -16t33 -15t34.5 -13t32.5 -9q-6 -54 -16.5 -90t-28.5 -57.5t-44.5 -30.5t-65.5 -9h-122q-48 0 -79.5 8.5t-49.5 28t-25 51.5t-7 79v303h144v-119q45 20 85 42t72 43l95 -106q-57 -30 -122.5 -56t-129.5 -47v-59
q0 -14 1.5 -22.5t6 -13t12 -5.5t20.5 -1h85zM704 399q-48 0 -79 8.5t-49 28t-24.5 51t-6.5 78.5v285h143v-129q43 19 82.5 38.5t71.5 39.5l91 -105q-56 -27 -119.5 -50.5t-125.5 -41.5v-35q0 -28 6.5 -34.5t31.5 -6.5h82q11 0 18 3.5t11 14t6.5 29t4.5 49.5q10 -8 26 -16
t33 -15t34.5 -12.5t32.5 -8.5q-6 -50 -16.5 -83t-28 -52.5t-43.5 -27.5t-63 -8h-119zM424 793q16 -26 33 -55t31 -58.5t25 -57.5t17 -52l-133 -52q-2 11 -5.5 23t-8.5 26q-84 -8 -136.5 -13.5t-84 -10t-47.5 -9t-26 -8.5q-3 11 -8.5 28.5t-12.5 36t-14.5 37.5t-13.5 33
q25 7 50 40q6 7 16 22.5t22 36.5t24 46t21 52l156 -39q-20 -38 -45.5 -77.5t-52.5 -74.5l107 8q-9 19 -18.5 37t-19.5 35zM476 46q0 -45 -10 -72t-39 -43q-29 -17 -64 -20.5t-80 -3.5q-5 29 -18.5 65.5t-27.5 62.5q22 -2 46 -2t33 1q9 0 12.5 3t3.5 12v39h-114v-182h-134
v585h392v-445zM218 373v-34h114v34h-114zM332 194v39h-114v-39h114z"     />

    
    <glyph glyph-name="cid37171" unicode="&#x88C5;" d="M928 166q-33 -23 -70 -44.5t-72 -39.5q81 -38 194 -54q-11 -11 -22.5 -25.5t-22 -30.5t-20 -32.5t-15.5 -29.5q-112 22 -191 64.5t-134 108.5q-5 -26 -7.5 -56t-2.5 -49q-105 -21 -169.5 -34.5t-102 -22t-54.5 -14t-27 -11.5q-2 12 -6.5 27t-10 30t-11.5 28.5t-12 22.5
q18 6 38.5 20t24.5 44q-33 -11 -67.5 -20.5t-70.5 -16.5q-13 23 -35 53t-42 50q81 12 155 34t134 52h-268v113h378q-3 8 -6.5 16t-6.5 16l143 40q19 -35 33 -72h378v-113h-104zM630 220q25 -40 57 -71q29 16 57.5 34.5t53.5 36.5h-168zM567 92q-41 53 -73 124
q-51 -48 -118 -86v-74zM24 517q42 14 96.5 35t113.5 44v105l-74 -77q-9 12 -23.5 26t-31.5 28.5t-35 28.5t-34 26l82 82q28 -18 60.5 -42t55.5 -45v127h134v-491h-134v105q-42 -18 -84 -35.5t-80 -32.5zM600 627h-201v124h201v104h146v-104h207v-124h-207v-95h186v-124h-509
v124h177v95z"     />

    
    <glyph glyph-name="cid38660" unicode="&#x8BBF;" d="M634 546q-1 -21 -1.5 -42t-1.5 -41h284q-1 -11 -1 -22q0 -9 -0.5 -19t-0.5 -16q-4 -106 -9 -182t-11.5 -127.5t-15.5 -82.5t-21 -46q-20 -25 -41 -35.5t-48 -15.5q-24 -5 -58.5 -5.5t-73.5 0.5q-2 31 -13.5 70t-28.5 68q32 -3 59 -4t42 -1q12 0 20.5 3t16.5 12
q6 7 11.5 25.5t10 50.5t8 79.5t6.5 112.5h-146q-7 -65 -20 -124.5t-34 -113.5t-52.5 -102t-74.5 -88q-8 13 -19.5 28t-25 29.5t-27.5 27t-27 21.5q51 47 79.5 105.5t43 127t18.5 146t6 161.5h-123v142h240q-6 30 -16.5 68t-21.5 70l139 39q7 -17 14.5 -37t14 -40t12.5 -38.5
t10 -33.5l-90 -28h306v-142h-339zM399 282q3 -14 8 -30.5t11 -32.5t12 -30.5t11 -24.5q-79 -64 -128 -105t-77.5 -67t-42 -41t-20.5 -27q-6 12 -16.5 28.5t-23 33t-25.5 31.5t-23 24q11 8 24 21t24 29t18.5 34.5t7.5 37.5v252h-125v139h270v-345zM224 591q-12 17 -30.5 39
t-39 45t-41.5 46t-39 43l101 88l39.5 -39.5l43 -43t41 -41.5t32.5 -36z"     />

    
    <glyph glyph-name="cid38698" unicode="&#x8BE5;" d="M978 320q-33 -51 -73.5 -97.5t-88.5 -89.5q42 -32 82 -65t66 -60l-115 -90q-22 27 -60 62t-79 70q-68 -47 -143.5 -84t-160.5 -63q-7 13 -16.5 28.5t-21 32t-22.5 32t-21 27.5q-36 -27 -59.5 -46t-38.5 -31.5t-23.5 -21.5t-14.5 -16q-5 11 -13.5 25.5t-19 28.5t-21 27
t-19.5 21q18 16 35 45.5t17 71.5v287h-134v139h275v-380l70 51q-5 7 -10 13t-10 11q70 24 133.5 59t117.5 77q-50 -4 -83 -7.5t-54 -7t-33.5 -6.5t-21.5 -7q-3 13 -7.5 32t-10.5 38.5t-12 37.5l-10 30q11 2 24.5 5.5t27 8t25 10.5t19.5 14q11 11 29.5 38.5t37.5 58.5h-177
v132h240q-5 17 -11.5 34.5t-13.5 33.5l145 34q12 -23 23 -50t19 -52h193v-132h-257q-19 -30 -38.5 -62t-38.5 -61l114 5q32 41 55 85l141 -49q-40 -66 -92 -127t-114.5 -114.5t-134.5 -97.5t-153 -75q-10 18 -26 42t-33 45q3 -15 7.5 -32t10 -34t11 -32t10.5 -25l-83 -63
q84 24 159.5 60t138.5 81t111.5 96.5t78.5 105.5zM198 583q-8 19 -21.5 43.5t-30 50.5t-33.5 52t-33 49l106 77q16 -21 34 -45.5t35.5 -49t32.5 -48t24 -42.5z"     />

    
    <glyph glyph-name="cid39300" unicode="&#x8D85;" d="M521 437h399v-320h-399v320zM656 232h120v90h-120v-90zM353 87q39 -11 85 -14.5t102 -3.5q23 0 57.5 -0.5t75 0t84.5 0.5t86 0.5t79 1.5t64 3q-8 -12 -16.5 -30t-16 -38t-13.5 -40t-9 -36h-392q-65 0 -120.5 5t-101.5 18.5t-83.5 37t-67.5 61.5q-8 -42 -17.5 -78
t-23.5 -67q-9 6 -24 15t-31.5 17.5t-32.5 16t-28 12.5q18 37 29 85.5t16.5 104t7.5 116.5t2 124l126 -8q0 -35 -1 -68.5t-3 -65.5q16 -46 39 -80v261h-185v127h163v74h-139v125h139v91h133v-91h134v-125h-134v-74h150v-13q40 27 64.5 64.5t36.5 85.5h-88v120h445v-18
q0 -8 -0.5 -16t-0.5 -13q-2 -60 -5 -105t-7.5 -76.5t-11 -52t-15.5 -31.5q-16 -19 -34 -27t-39 -12q-20 -3 -49 -4t-63 0q-2 28 -11.5 62.5t-23.5 58.5q-21 -44 -51 -78t-68 -60q-12 12 -34.5 30t-44.5 33v-75h-133v-90h119v-125h-119v-135zM723 701q-14 -63 -39 -114
q23 -2 42 -2.5t30 -0.5q19 0 29 10q6 8 10 32t7 75h-79z"     />

    
    <glyph glyph-name="cid43132" unicode="&#x95EE;" d="M937 71q0 -57 -13 -88t-46 -48t-79.5 -21.5t-112.5 -3.5q-2 15 -6.5 33.5t-10.5 38t-13 37.5t-14 32q17 -1 36.5 -1.5t37.5 -0.5h32h20q14 1 19 5.5t5 18.5v602h-451v134h596v-738zM430 155v-52h-130v441h391v-389h-261zM430 415v-131h120v131h-120zM174 852
q18 -19 39.5 -41.5t43 -45.5t41 -44.5t32.5 -38.5l-112 -80q-12 18 -30 40.5t-38.5 46.5t-41.5 48t-39 45zM64 605h144v-698h-144v698z"     />

    
    <glyph glyph-name="uni9ED1" unicode="&#x9ED1;" d="M852 122q16 -20 32.5 -42.5t32 -45t28.5 -44.5t22 -40l-147 -50q-7 18 -19.5 41.5t-27.5 48t-31.5 49.5t-31.5 46l115 37h-665l123 -30q-16 -52 -44 -103.5t-62 -87.5l-141 60q15 13 29.5 31t27.5 39t24.5 44.5t19.5 46.5h-87v126h376v28h-299v112h299v29h-286v407h724
v-407h-292v-29h303v-112h-303v-28h379v-126h-99zM717 708h-145v-175h145v113q-14 -32 -27 -60.5t-24 -50.5l-89 33q12 28 24.5 66.5t19.5 69.5l96 -33v37zM426 533v175h-148v-175h148zM370 700q17 -30 30.5 -66t18.5 -63l-94 -35q-2 13 -5.5 29.5t-9.5 34.5t-13 35.5
t-15 33.5zM654 106q16 -39 30.5 -84.5t19.5 -78.5l-147 -33q-2 16 -6 36.5t-9.5 43t-12 45.5t-13.5 43zM453 96q4 -20 7 -43t5.5 -45.5t4 -43t1.5 -36.5l-144 -17q1 33 -1.5 81.5t-8.5 90.5z"     />

    
    <glyph glyph-name="cid59003" unicode="&#xFF0C;" d="M301 46q-21 0 -40 7t-34 19.5t-24 31t-9 42.5q0 46 32.5 73t78.5 27q60 0 90.5 -40.5t30.5 -109.5q0 -88 -55 -155.5t-157 -95.5l-37 96q58 16 91.5 44.5t39.5 60.5h-7z"     />

    
    <glyph glyph-name="cid63037" unicode="&#xFF1F;" d="M122 99q0 48 33 78.5t85 30.5t85 -30.5t33 -78.5t-33 -79.5t-85 -31.5t-85 31.5t-33 79.5zM162 266q-4 39 5 69t25 53.5t35.5 42.5t37 37t29.5 36.5t12 41.5q0 35 -20.5 52.5t-52.5 17.5q-31 0 -55.5 -13t-47.5 -39l-98 90q40 49 97 77.5t125 28.5q47 0 87.5 -12
t70.5 -36t47 -61.5t17 -88.5q0 -37 -12.5 -64t-30.5 -48.5t-39 -40t-39 -39t-28.5 -45.5t-8.5 -59h-156v0z"     />

    

  </font>
</defs>
</svg>
